<?xml version="1.0" standalone="no"?>
<!DOCTYPE svg PUBLIC "-//W3C//DTD SVG 20010904//EN"
 "http://www.w3.org/TR/2001/REC-SVG-20010904/DTD/svg10.dtd">
<svg version="1.0" xmlns="http://www.w3.org/2000/svg"
 width="860.000000pt" height="602.000000pt" viewBox="0 0 860.000000 602.000000"
 preserveAspectRatio="xMidYMid meet">

<g transform="translate(0.000000,602.000000) scale(0.100000,-0.100000)"
fill="#000000" stroke="none">
<path d="M0 3010 l0 -3010 4300 0 4300 0 0 3010 0 3010 -4300 0 -4300 0 0
-3010z m1140 2375 c637 -45 804 -60 796 -74 -3 -4 -23 -187 -46 -407 -42 -404
-67 -625 -72 -629 -2 -2 -86 -44 -187 -95 l-183 -91 -137 5 c-219 9 -419 15
-676 21 -232 6 -335 11 -343 20 -2 2 22 245 54 539 l58 536 94 78 c150 123
164 131 231 126 31 -3 216 -16 411 -29z m1760 -135 c0 -5 -4 -10 -10 -10 -5 0
-10 -18 -10 -41 0 -24 -4 -38 -10 -34 -5 3 -10 19 -10 35 0 23 -3 27 -20 23
-11 -3 -20 -13 -20 -22 0 -25 -49 -91 -67 -91 -14 0 -13 3 4 23 19 21 43 60
43 70 0 3 -9 3 -20 0 -11 -3 -20 -1 -20 4 0 4 26 18 58 29 67 25 82 28 82 14z
m134 -16 c23 -9 20 -26 -4 -19 -11 3 -30 3 -41 0 -19 -6 -21 -13 -16 -51 6
-54 -10 -59 -18 -6 -4 20 -8 42 -9 47 -2 6 9 15 23 22 31 14 44 15 65 7z
m-794 -14 c0 -5 -16 -10 -35 -10 -33 0 -75 -27 -75 -48 0 -22 30 -44 68 -49
44 -6 58 -23 18 -23 -42 0 -87 22 -96 46 -12 30 4 68 34 82 27 14 86 15 86 2z
m334 -6 c7 -18 -7 -49 -36 -81 -27 -29 -14 -47 28 -40 40 7 46 -10 8 -19 -30
-8 -74 10 -74 29 0 8 14 31 30 52 17 21 30 42 30 46 0 5 -21 9 -46 9 -27 0
-43 4 -39 10 10 17 92 12 99 -6z m-149 -24 c4 -6 -12 -10 -39 -10 -25 0 -46 5
-46 10 0 6 18 10 39 10 22 0 43 -4 46 -10z m1477 -43 c95 -36 244 -127 303
-184 132 -126 210 -313 209 -498 -1 -174 -98 -383 -253 -547 -97 -103 -194
-171 -293 -205 -98 -34 -226 -30 -308 8 -75 35 -159 107 -232 198 -226 280
-222 609 11 995 88 144 166 217 274 252 66 22 207 12 289 -19z m-1482 -7 c0
-5 -18 -10 -40 -10 -22 0 -40 5 -40 10 0 6 18 10 40 10 22 0 40 -4 40 -10z
m3860 -50 c0 -13 -25 -18 -179 -29 -74 -5 -138 -14 -142 -18 -5 -5 -19 -53
-32 -108 -29 -121 -45 -129 -69 -35 -18 73 -22 120 -10 120 4 0 14 -34 21 -76
7 -42 16 -72 20 -68 4 5 16 46 26 92 10 45 24 87 30 92 6 5 81 16 166 23 85 8
157 15 162 16 4 0 7 -3 7 -9z m-1305 -95 l-27 -35 21 -35 c24 -41 25 -45 11
-45 -5 0 -17 14 -26 32 l-17 32 -32 -37 c-42 -48 -54 -36 -14 14 l31 39 -22
35 c-25 41 -11 48 18 9 l19 -27 29 38 c15 20 30 32 32 26 2 -6 -9 -26 -23 -46z
m410 31 c16 -12 17 -18 8 -39 -11 -23 -10 -26 10 -29 16 -2 23 -11 25 -33 5
-39 -19 -55 -80 -55 -47 0 -48 0 -48 33 0 17 -3 56 -6 85 l-7 52 40 0 c21 0
48 -6 58 -14z m181 -22 c20 -19 24 -31 20 -52 -12 -49 -92 -104 -109 -74 -2 4
-8 40 -11 80 l-7 72 41 0 c31 0 47 -6 66 -26z m535 -49 c17 -36 29 -70 26 -77
-3 -8 -10 -2 -17 14 l-13 27 -27 -20 c-33 -25 -83 -22 -88 4 -7 36 9 67 45 92
21 14 39 25 41 25 2 0 17 -29 33 -65z m-911 24 c0 -10 -50 -12 -74 -3 -9 3
-14 9 -12 13 6 10 86 1 86 -10z m565 -29 c4 -6 -12 -10 -39 -10 -25 0 -46 5
-46 10 0 6 18 10 39 10 22 0 43 -4 46 -10z m-575 -10 c0 -5 -18 -10 -40 -10
-22 0 -40 5 -40 10 0 6 18 10 40 10 22 0 40 -4 40 -10z m-2986 -31 c10 -52 7
-176 -4 -159 -5 8 -10 27 -10 43 0 25 -3 27 -38 27 -31 0 -41 -5 -55 -30 -21
-35 -44 -42 -26 -7 31 57 103 157 114 157 7 0 15 -14 19 -31z m668 13 c-19
-14 -21 -23 -16 -52 4 -19 11 -43 16 -52 12 -25 -9 -23 -22 1 -5 11 -10 36
-10 55 0 47 -23 39 -49 -18 -24 -50 -57 -93 -66 -84 -4 3 7 25 24 49 34 46 40
72 16 63 -8 -4 -15 -2 -15 4 0 11 94 49 125 51 19 1 19 0 -3 -17z m133 -12
c19 -21 8 -29 -12 -9 -9 9 -18 8 -37 -5 -23 -14 -26 -24 -26 -71 0 -30 -4 -55
-10 -55 -11 0 -13 46 -4 101 5 27 13 39 33 46 37 15 36 15 56 -7z m2760 -10
c-3 -5 -24 -10 -46 -10 -21 0 -39 5 -39 10 0 6 21 10 46 10 27 0 43 -4 39 -10z
m-3186 -85 c24 -97 24 -95 11 -95 -5 0 -12 16 -16 36 -6 32 -9 35 -37 32 -26
-2 -33 -9 -41 -35 -8 -31 -26 -46 -26 -22 0 15 50 141 63 157 18 23 24 12 46
-73z m-179 45 c0 -5 -18 -10 -40 -10 -22 0 -40 5 -40 10 0 6 18 10 40 10 22 0
40 -4 40 -10z m-5 -50 c-3 -5 -21 -10 -40 -10 -19 0 -37 5 -40 10 -4 6 12 10
40 10 28 0 44 -4 40 -10z m3006 -20 c23 -13 25 -59 5 -98 -18 -35 -82 -96 -89
-85 -2 4 -8 46 -12 92 -6 66 -4 85 6 92 19 12 66 11 90 -1z m2619 -9 c0 -11
-5 -12 -210 -47 -85 -15 -160 -31 -167 -38 -6 -6 -28 -64 -49 -129 -21 -67
-42 -116 -48 -114 -19 6 -63 207 -46 207 5 0 12 -17 16 -37 3 -21 12 -60 18
-88 l12 -50 38 112 c21 62 43 116 49 120 10 6 338 69 375 72 6 1 12 -3 12 -8z
m-2398 -191 c303 -93 1056 -350 1088 -370 13 -9 13 -11 0 -20 -8 -5 -31 -10
-50 -10 -19 0 -109 -5 -200 -10 -144 -8 -668 -27 -1232 -45 -168 -5 -178 -4
-178 13 0 25 49 104 166 268 105 148 179 234 200 234 7 0 100 -27 206 -60z
m1538 15 c6 -19 15 -35 19 -35 4 0 20 14 36 30 16 17 36 30 44 30 9 0 -1 -17
-28 -44 l-43 -43 26 -51 c14 -28 22 -53 17 -56 -4 -3 -18 17 -31 45 l-24 49
-33 -32 c-44 -42 -56 -27 -13 17 l34 35 -17 35 c-19 40 -21 55 -8 55 5 0 15
-16 21 -35z m663 -33 c30 -75 31 -82 17 -82 -5 0 -12 11 -16 25 -7 30 -3 29
-49 9 -33 -14 -39 -14 -61 1 -50 32 -14 115 50 115 29 0 33 -5 59 -68z m-415
12 c39 -11 24 -19 -28 -16 -27 2 -50 8 -50 13 0 10 44 12 78 3z m-4909 -18
c17 -20 27 -116 12 -116 -6 0 -11 16 -11 38 0 42 -21 79 -38 68 -7 -4 -12 -27
-12 -52 0 -24 -4 -44 -10 -44 -5 0 -10 24 -10 54 0 44 4 55 18 59 31 8 39 7
51 -7z m-383 -8 c-72 -177 -97 -362 -57 -438 24 -46 25 -50 12 -50 -24 0 -51
87 -51 162 0 106 63 338 92 338 5 0 7 -6 4 -12z m838 -4 c17 -17 22 -74 7 -74
-6 0 -11 15 -13 33 -4 39 -22 43 -26 5 -5 -40 -22 -35 -22 6 0 24 5 36 18 39
9 3 18 5 19 6 1 0 9 -6 17 -15z m-558 -135 c22 -84 22 -191 0 -256 -17 -53
-88 -144 -101 -131 -4 4 10 28 32 52 76 86 88 222 36 379 -16 48 -27 90 -24
93 9 8 38 -64 57 -137z m5039 101 c-3 -5 -28 -10 -55 -10 -27 0 -52 5 -55 10
-4 6 17 10 55 10 38 0 59 -4 55 -10z m-5179 -63 c11 -55 1 -93 -11 -44 -6 24
-8 24 -36 10 -37 -19 -59 -4 -59 39 0 23 6 32 33 43 50 22 60 16 73 -48z m623
-24 c14 -69 14 -83 1 -83 -5 0 -10 11 -10 25 0 25 0 25 -35 8 -28 -13 -37 -14
-50 -3 -23 19 -18 48 14 81 47 46 66 39 80 -28z m-529 -83 c0 -6 -48 -10 -125
-10 -77 0 -125 4 -125 10 0 6 48 10 125 10 77 0 125 -4 125 -10z m257 -30 c8
0 12 -4 9 -8 -7 -11 -86 -2 -86 10 0 6 13 8 31 4 17 -3 38 -6 46 -6z m307 -29
c7 -11 -53 -21 -136 -21 -102 0 -81 19 25 23 50 1 95 4 99 5 4 1 9 -2 12 -7z
m-739 -41 c-6 -38 -6 -40 19 -40 20 0 30 -8 43 -35 22 -46 7 -65 -53 -65 -38
0 -44 3 -44 21 0 44 23 159 32 159 6 0 7 -17 3 -40z m435 0 c0 -5 -18 -10 -40
-10 -22 0 -40 5 -40 10 0 6 18 10 40 10 22 0 40 -4 40 -10z m310 -9 c13 -24
13 -71 1 -71 -6 0 -11 15 -13 33 -2 20 -8 32 -18 32 -10 0 -16 -12 -18 -32 -2
-18 -7 -33 -13 -33 -14 0 -11 78 4 83 26 11 47 6 57 -12z m3950 9 c0 -5 -6
-10 -14 -10 -27 0 -66 -48 -66 -81 l0 -32 58 6 c51 5 55 4 38 -9 -24 -17 -87
-19 -104 -2 -15 15 -15 68 1 88 29 37 87 64 87 40z m-4070 -73 c0 -41 1 -42
32 -42 40 0 66 -41 48 -74 -17 -33 -120 -43 -111 -10 2 8 6 49 9 92 5 81 22
108 22 34z m5440 -67 c0 -58 1 -60 20 -50 46 24 83 -38 43 -72 -16 -13 -67
-38 -78 -38 -3 0 -5 50 -5 110 0 67 4 110 10 110 6 0 10 -27 10 -60z m-690 22
c8 -3 28 -6 45 -6 21 -1 33 -8 42 -26 15 -30 17 -100 3 -100 -5 0 -10 17 -10
38 0 44 -20 78 -42 69 -11 -3 -14 -14 -11 -31 3 -15 1 -26 -6 -26 -6 0 -11 8
-11 18 0 21 -27 62 -41 62 -6 0 -9 -26 -8 -65 2 -69 -5 -95 -15 -48 -5 25 -9
107 -7 125 1 6 33 1 61 -10z m216 -60 c1 -2 16 11 32 30 40 44 50 31 13 -16
-30 -38 -31 -51 -4 -91 16 -23 17 -35 3 -35 -6 0 -18 16 -27 35 l-17 35 -27
-33 c-15 -17 -30 -29 -34 -25 -4 4 4 21 19 38 31 38 31 40 6 89 -10 21 -16 42
-12 45 3 4 15 -10 25 -31 11 -21 21 -40 23 -41z m-351 58 c4 -6 -15 -10 -49
-10 -31 0 -56 5 -56 10 0 6 22 10 49 10 28 0 53 -4 56 -10z m676 -60 c21 0 39
-4 39 -10 0 -5 -18 -10 -40 -10 l-40 0 0 -40 c0 -22 -4 -40 -10 -40 -5 0 -10
18 -10 40 0 33 -3 40 -20 40 -11 0 -20 5 -20 10 0 6 9 10 20 10 15 0 20 7 20
28 0 43 15 49 18 8 3 -35 5 -36 43 -36z m-3015 -61 c10 -84 7 -120 -7 -83 -4
10 -8 31 -8 47 -1 23 -5 27 -31 27 -23 0 -33 -7 -45 -30 -9 -16 -20 -30 -25
-30 -11 0 19 63 58 123 14 21 30 36 36 34 6 -2 16 -41 22 -88z m453 67 c7 -8
9 -25 5 -40 -5 -22 -3 -26 15 -26 14 0 23 -8 27 -26 9 -35 -19 -61 -72 -70
l-41 -6 -6 62 c-10 94 -9 108 11 113 33 9 50 7 61 -7z m1876 -16 c4 -6 -13
-10 -44 -10 -27 0 -53 5 -56 10 -4 6 13 10 44 10 27 0 53 -4 56 -10z m-860
-401 c-302 -691 -481 -1079 -504 -1093 -24 -15 -132 128 -331 438 l-103 158 3
67 c4 136 9 149 65 180 41 22 777 359 887 406 18 7 37 10 41 5 5 -4 -22 -77
-58 -161z m-4385 102 c0 -5 -64 -59 -142 -119 -79 -60 -173 -134 -211 -165
l-67 -55 122 -6 c68 -3 169 -7 226 -9 l103 -2 -26 23 c-15 12 -25 27 -23 32 2
5 23 -8 48 -29 25 -21 43 -41 40 -43 -75 -58 -135 -83 -72 -29 l32 28 -232 6
c-127 4 -236 11 -241 16 -5 5 16 30 50 59 59 52 381 302 389 302 2 0 4 -4 4
-9z m-1009 -663 c-11 -173 -22 -209 -70 -226 -44 -16 -109 4 -124 37 -17 36
-15 647 1 663 9 9 12 -1 12 -40 l0 -52 85 0 85 0 0 48 c0 27 3 52 8 56 11 12
14 -313 3 -486z m-475 314 c-6 -84 -10 -155 -7 -158 2 -2 35 -4 73 -4 l68 0 0
160 c0 100 4 160 10 160 6 0 10 -103 10 -290 0 -321 -4 -346 -59 -374 -39 -20
-95 -20 -115 0 -13 12 -16 41 -16 152 0 210 25 532 40 516 4 -5 2 -78 -4 -162z
m618 -45 l-7 -214 84 -6 c46 -3 85 -4 87 -3 1 2 5 101 9 220 3 119 10 216 15
216 12 0 -1 -602 -13 -652 -11 -43 -48 -68 -99 -68 -89 0 -95 26 -94 391 1
274 4 329 19 329 3 0 3 -96 -1 -213z m1210 121 c20 -172 -11 -192 -83 -54
l-31 58 -24 -53 c-13 -30 -26 -64 -30 -76 -4 -13 -12 -23 -17 -23 -13 0 -5 25
34 113 16 37 33 67 38 67 4 0 22 -28 39 -62 17 -35 39 -70 47 -78 14 -13 15
-6 9 73 -7 94 7 121 18 35z m1584 -26 c-18 -44 -85 -162 -92 -162 -4 0 -5 8
-1 18 30 71 30 68 1 102 -15 18 -24 35 -20 39 3 3 18 -9 33 -26 l27 -33 17 35
c9 19 22 35 28 35 6 0 9 -4 7 -8z m-173 -131 c-3 -2 -11 1 -17 7 -7 7 -15 12
-18 12 -3 0 -7 -56 -9 -125 l-3 -125 66 0 66 0 0 58 c0 41 -6 64 -20 82 -11
14 -20 29 -20 33 0 21 23 -5 91 -98 344 -477 778 -785 1187 -845 48 -7 79 -16
76 -22 -3 -5 -17 -7 -31 -3 -23 6 -24 4 -21 -47 2 -35 7 -53 16 -52 6 1 42 2
79 3 l67 1 -29 30 c-16 16 -26 33 -22 36 8 8 32 -11 57 -45 l18 -26 -35 -39
c-19 -20 -37 -35 -41 -32 -3 3 5 18 19 32 l24 26 -165 -6 c-175 -6 -435 -12
-875 -21 -148 -3 -330 -8 -402 -11 l-133 -6 0 -45 c0 -30 -4 -42 -11 -37 -7 4
-9 21 -5 45 l6 39 -85 0 c-50 0 -85 4 -85 10 0 6 34 10 83 10 l84 0 7 283 c13
588 16 695 22 800 l5 108 -21 -11 c-12 -6 -25 -8 -28 -4 -4 4 -2 9 4 11 6 2
20 10 30 18 17 12 22 11 46 -12 15 -15 26 -29 23 -32z m-1239 -293 c-21 -269
-45 -535 -52 -570 -7 -33 10 -27 -339 -108 -341 -79 -464 -104 -471 -97 -4 3
31 48 76 99 45 51 242 274 438 496 195 221 357 400 360 398 2 -3 -4 -100 -12
-218z m869 52 c3 -5 -2 -10 -12 -11 -10 0 -25 -2 -33 -3 -8 -2 -43 -6 -76 -10
-93 -10 -256 -52 -336 -86 -70 -30 -176 -99 -211 -138 -18 -19 -17 -20 38 -27
30 -3 53 -10 50 -15 -4 -7 -124 -2 -133 6 -7 6 21 154 29 154 11 0 11 -24 0
-72 -5 -22 -5 -38 0 -38 5 0 9 4 9 8 0 16 115 95 187 129 89 41 233 80 362 98
124 17 119 17 126 5z m3469 -32 c9 -35 7 -60 -4 -53 -5 3 -10 15 -10 27 0 13
-5 18 -14 15 -21 -8 -291 -175 -317 -195 l-22 -19 114 -39 c84 -29 114 -43
114 -56 0 -9 -55 -75 -122 -146 l-123 -130 83 -6 c45 -3 100 -4 122 -2 22 2
66 4 98 5 l57 1 0 56 c0 34 4 53 10 49 6 -3 10 -30 10 -60 0 -39 -4 -54 -16
-59 -25 -10 -394 -7 -394 3 0 5 59 71 130 147 72 76 127 141 123 145 -5 4 -53
22 -108 39 -55 18 -106 38 -113 45 -18 16 3 32 190 147 82 49 150 94 154 99
10 17 32 9 38 -13z m286 -200 c0 -7 7 -85 15 -173 17 -184 19 -237 6 -215 -5
8 -12 54 -16 103 l-7 87 -49 0 -49 0 -26 -57 c-14 -32 -30 -68 -35 -81 -5 -13
-13 -21 -18 -17 -10 5 7 46 104 252 48 101 75 137 75 101z m-6662 -424 c27
-42 22 -58 -7 -23 l-20 24 -1 -45 c-1 -25 -11 -251 -23 -503 l-22 -457 24 0
c49 0 109 39 130 84 12 23 21 53 21 67 0 46 22 102 50 131 43 42 100 37 157
-15 29 -26 107 -25 143 1 41 31 46 62 22 136 -64 195 24 360 173 326 87 -20
127 -86 146 -243 7 -54 18 -105 25 -115 11 -16 14 -16 46 1 18 10 54 32 81 49
64 42 79 34 131 -72 51 -106 68 -115 161 -82 35 12 73 22 84 22 31 0 84 -53
119 -117 17 -32 44 -71 61 -88 31 -29 32 -29 79 -15 26 7 66 15 89 18 58 6 87
-25 104 -108 12 -65 19 -71 82 -85 18 -4 33 -17 44 -39 33 -69 89 -63 150 17
13 17 24 23 28 17 4 -6 -13 -31 -38 -55 -66 -67 -122 -61 -161 17 -8 15 -25
25 -54 31 -48 9 -55 20 -71 98 -15 70 -36 91 -88 87 l-38 -3 -3 -152 -3 -152
153 5 c84 3 213 7 286 10 130 6 133 7 116 25 -29 32 -8 32 28 0 l33 -31 -33
-31 c-37 -33 -57 -32 -26 2 l19 21 -175 -6 c-234 -8 -468 -14 -935 -26 -214
-5 -460 -12 -545 -15 -85 -2 -262 -8 -392 -11 l-238 -7 0 -33 c0 -18 -4 -36
-10 -39 -6 -4 -10 10 -10 35 l0 41 -57 -1 c-32 -1 -62 -1 -68 0 -17 4 48 18
86 19 35 1 36 2 43 47 8 65 8 214 -1 213 -28 -5 -73 3 -73 12 0 6 17 9 43 7
l42 -3 22 445 c12 245 22 471 22 503 l1 59 -36 -22 c-19 -12 -37 -20 -40 -17
-5 5 84 77 95 77 3 0 16 -16 29 -36z m2449 -163 c-3 -14 -9 -34 -12 -43 -6
-15 -1 -18 34 -18 23 0 41 -4 41 -10 0 -5 -20 -10 -45 -10 -52 0 -65 16 -46
57 13 29 7 43 -11 25 -14 -14 -28 -16 -28 -2 0 12 52 40 63 33 5 -3 7 -17 4
-32z m2531 -39 c17 18 35 29 38 25 4 -4 -7 -22 -24 -40 l-32 -33 30 -29 c16
-16 30 -36 30 -44 0 -10 -14 -2 -38 22 l-38 37 -27 -27 c-36 -37 -48 -20 -12
17 l29 30 -27 28 c-39 40 -33 52 6 14 l33 -32 32 32z m-2659 -104 c7 -40 15
-83 18 -95 3 -13 1 -23 -5 -23 -6 0 -13 13 -17 29 l-6 29 -35 -14 c-45 -19
-64 -6 -64 43 0 26 8 43 34 69 51 51 61 46 75 -38z m4369 -33 c2 -16 -1 -47
-8 -69 -8 -27 -8 -42 -1 -49 43 -43 -56 -143 -108 -110 -28 18 -26 80 5 120
19 25 23 38 15 46 -6 6 -11 23 -11 38 0 35 34 61 75 57 25 -3 31 -8 33 -33z
m-488 -71 c0 -3 -19 -33 -42 -65 l-42 -60 27 -53 c14 -30 23 -57 19 -60 -3 -4
-18 16 -32 44 l-26 52 -28 -41 c-16 -23 -33 -41 -37 -41 -14 0 -11 9 22 55
l31 43 -27 52 c-14 28 -24 55 -21 58 8 7 10 4 39 -46 l25 -44 38 56 c35 50 54
68 54 50z m788 -55 c4 -77 8 -86 32 -64 26 24 39 11 15 -15 -38 -42 -65 -13
-65 69 0 50 0 50 -26 41 -31 -12 -34 -12 -34 -1 0 10 49 31 65 27 6 -1 11 -27
13 -57z m190 42 c3 -9 -1 -11 -16 -7 -13 5 -29 -1 -47 -16 l-26 -23 38 0 c33
0 38 -3 41 -26 6 -54 -76 -108 -86 -56 -3 16 -1 17 17 5 18 -11 23 -10 35 7 9
11 16 28 16 39 0 16 -6 18 -40 13 -56 -7 -61 10 -14 50 39 33 74 40 82 14z
m-392 -23 l17 -32 29 33 c40 44 49 31 11 -17 l-30 -37 19 -30 c19 -33 22 -45
10 -45 -4 0 -16 14 -25 30 l-18 30 -27 -32 c-14 -18 -27 -35 -29 -37 -2 -2 -6
-1 -10 2 -3 4 8 25 26 47 l33 41 -21 35 c-24 40 -25 44 -11 44 5 0 17 -14 26
-32z m-4426 -18 c23 0 31 -3 24 -10 -13 -13 -224 -1 -224 13 0 6 30 8 83 4 45
-4 98 -7 117 -7z m4060 0 c0 -5 -15 -10 -34 -10 -19 0 -38 5 -41 10 -4 6 10
10 34 10 23 0 41 -4 41 -10z m-4142 -159 c47 4 60 0 67 -20 14 -46 -47 -101
-95 -86 -20 6 -21 12 -19 108 2 117 13 152 17 59 3 -62 4 -63 30 -61z m4152
99 c0 -5 -20 -10 -45 -10 -25 0 -45 5 -45 10 0 6 20 10 45 10 25 0 45 -4 45
-10z m-1575 -216 c6 -64 5 -85 -4 -80 -6 4 -11 25 -11 47 0 34 -3 39 -23 39
-19 0 -27 -8 -37 -40 -7 -22 -17 -40 -22 -40 -4 0 -8 2 -8 4 0 13 64 183 73
195 15 18 23 -13 32 -125z m2385 116 c0 -5 -10 -10 -22 -11 -13 0 -194 -10
-403 -23 -209 -12 -382 -21 -384 -19 -17 13 53 20 372 39 450 26 437 26 437
14z m-534 -127 c-2 -10 -10 -44 -17 -75 -7 -32 -16 -58 -21 -58 -10 0 -10 16
1 60 5 19 12 47 15 63 4 15 11 27 17 27 6 0 8 -8 5 -17z m-1366 -468 c204
-220 368 -401 363 -402 -9 -3 -833 -93 -848 -93 -6 0 -2 162 12 428 12 235 22
454 22 487 l1 60 39 -40 c22 -22 206 -220 411 -440z m1612 458 c40 -36 4 -123
-52 -123 -31 0 -40 14 -40 64 0 64 50 97 92 59z m-132 -54 c0 -39 -16 -68 -43
-78 -59 -23 -79 49 -27 100 25 25 33 28 50 19 13 -7 20 -21 20 -41z m-2526
-56 l39 -6 -6 -151 c-9 -229 -45 -619 -58 -627 -38 -23 -1155 -117 -1174 -98
-11 12 -9 597 3 769 l7 105 45 6 c62 8 1096 10 1144 2z m2059 -475 l82 -3 2
-90 c2 -49 5 -100 8 -112 l5 -23 250 0 c155 0 251 -4 255 -10 4 -7 -116 -10
-354 -10 l-360 0 5 303 c3 166 9 309 12 317 4 8 8 -71 10 -177 l2 -192 83 -3z
m-893 334 c0 -5 -11 -14 -25 -20 -31 -15 -43 -57 -24 -91 19 -34 42 -37 68
-10 13 15 21 18 21 9 0 -22 -31 -50 -57 -50 -16 0 -30 11 -43 33 -27 44 -25
76 7 109 26 27 53 37 53 20z m1338 -104 c4 -33 -30 -57 -54 -37 -30 24 -8 72
31 67 13 -2 21 -12 23 -30z m-2108 -7 c0 -15 3 -49 6 -74 6 -42 9 -45 26 -36
31 17 58 2 58 -33 0 -22 -10 -40 -36 -65 -20 -19 -40 -31 -45 -26 -4 4 -12 57
-18 117 -13 135 -14 146 -1 146 6 0 10 -13 10 -29z m1906 -108 c15 -138 6
-193 -31 -193 -19 0 -66 40 -59 51 3 5 17 0 31 -11 14 -11 29 -20 34 -20 12 0
22 66 15 95 -5 21 -10 24 -35 19 -56 -11 -65 65 -14 106 42 33 51 26 59 -47z
m122 31 c28 -19 28 -52 -1 -95 -27 -41 -61 -49 -77 -19 -9 17 -6 31 14 75 14
30 29 55 33 55 5 0 19 -7 31 -16z m-858 -363 c0 -17 -4 -33 -10 -36 -5 -3 -10
-11 -10 -16 0 -6 5 -7 10 -4 16 10 40 -15 40 -41 0 -27 -54 -89 -86 -98 -11
-3 -27 0 -36 6 -14 12 -14 22 0 116 l16 102 38 0 c35 0 38 -2 38 -29z m-1111
-94 c-42 -35 -52 -62 -39 -102 6 -18 18 -39 27 -46 13 -11 20 -8 45 20 33 37
49 35 24 -3 -48 -74 -116 -42 -118 55 0 31 6 47 28 70 15 16 35 29 43 29 12
-1 8 -7 -10 -23z"/>
<path d="M683 5367 c-3 -48 -13 -78 -22 -73 -5 3 -5 25 -1 48 5 24 7 45 5 47
-4 3 -118 -85 -198 -152 l-29 -24 89 -12 c49 -6 94 -11 100 -11 6 0 13 18 17
40 3 22 11 40 16 40 12 0 12 -7 1 -48 -9 -28 -7 -32 12 -37 12 -2 217 -28 455
-56 l434 -51 171 114 c93 62 164 114 156 115 -27 5 -648 53 -874 68 -126 8
-252 17 -280 20 l-50 5 -2 -33z"/>
<path d="M1740 5175 c-98 -66 -158 -113 -162 -127 -10 -31 -120 -919 -115
-925 3 -2 75 31 161 74 163 81 170 89 77 92 -25 1 -32 4 -24 12 7 7 30 8 72 1
56 -8 61 -7 61 9 0 17 82 816 95 922 3 26 2 47 -2 46 -4 0 -78 -47 -163 -104z
m-110 -875 c0 -6 -26 -10 -59 -10 -33 0 -63 5 -66 10 -4 6 18 10 59 10 37 0
66 -4 66 -10z"/>
<path d="M420 5178 c0 -7 -25 -238 -55 -512 -30 -275 -55 -505 -55 -511 0 -9
79 -14 283 -19 155 -3 336 -9 402 -11 448 -17 445 -17 445 2 1 10 27 223 59
473 32 250 58 456 57 457 -4 4 -1087 133 -1113 133 -13 0 -23 -6 -23 -12z
m210 -77 c-12 -45 -34 -58 -24 -13 12 46 26 78 31 65 2 -6 -1 -30 -7 -52z
m-15 -106 c-3 -14 -7 -36 -10 -50 -3 -14 -10 -25 -16 -25 -6 0 -8 8 -5 18 2 9
7 32 11 50 4 17 11 32 16 32 5 0 7 -11 4 -25z m-29 -167 c-4 -29 -12 -57 -18
-63 -7 -7 -9 2 -4 30 3 22 6 50 6 63 0 12 5 22 11 22 8 0 9 -16 5 -52z m-19
-120 c-3 -13 -9 -40 -12 -60 -4 -21 -12 -38 -17 -38 -6 0 -8 10 -5 23 3 12 9
39 12 60 4 20 12 37 17 37 6 0 8 -10 5 -22z m-11 -205 c-3 -10 -8 -35 -12 -55
-3 -21 -10 -35 -15 -32 -5 3 -7 16 -4 30 3 13 7 35 10 49 3 14 10 25 16 25 6
0 8 -8 5 -17z m-16 -133 c0 -16 -4 -30 -10 -30 -5 0 -10 14 -10 30 0 17 5 30
10 30 6 0 10 -13 10 -30z m160 -29 c0 -11 -120 -19 -126 -9 -7 11 18 16 74 17
28 1 52 -3 52 -8z m180 -1 c0 -5 -22 -10 -49 -10 -28 0 -53 5 -56 10 -4 6 15
10 49 10 31 0 56 -4 56 -10z m160 0 c0 -5 -25 -10 -55 -10 -30 0 -55 5 -55 10
0 6 25 10 55 10 30 0 55 -4 55 -10z m148 -5 c11 -11 -5 -13 -50 -8 -27 3 -48
10 -48 16 0 9 88 3 98 -8z m142 -5 c15 0 21 -3 14 -10 -12 -12 -114 -1 -114
13 0 6 15 7 38 3 20 -3 48 -6 62 -6z m115 -10 c4 -6 -10 -10 -34 -10 -23 0
-41 5 -41 10 0 6 15 10 34 10 19 0 38 -4 41 -10z m-915 -4 c0 -2 -18 -19 -40
-36 -50 -40 -68 -30 -20 11 31 25 60 37 60 25z m-126 -95 c5 -7 -64 -61 -79
-61 -16 0 0 21 33 43 44 31 40 29 46 18z"/>
<path d="M3592 5139 c-145 -57 -316 -313 -390 -582 -12 -44 -17 -100 -16 -192
0 -115 3 -139 26 -203 41 -113 103 -208 197 -303 130 -130 236 -171 374 -148
262 43 536 345 606 668 l9 43 -136 -6 c-75 -3 -217 -9 -314 -12 -137 -5 -178
-10 -178 -20 0 -7 -10 -25 -23 -40 -19 -22 -29 -26 -50 -20 -35 8 -61 48 -53
81 6 23 57 65 79 65 4 0 19 -12 32 -26 l25 -27 192 7 c106 3 246 9 312 12
l119 7 -7 69 c-15 165 -106 354 -218 452 -55 48 -205 135 -290 168 -81 31
-227 35 -296 7z m388 -505 c0 -12 4 -14 13 -7 27 22 58 21 85 -2 15 -13 24
-27 19 -31 -4 -4 -16 2 -27 14 -25 26 -23 26 -60 7 -29 -15 -30 -19 -30 -81 0
-41 -4 -63 -10 -59 -5 3 -10 44 -10 91 0 49 4 84 10 84 6 0 10 -7 10 -16z"/>
<path d="M3686 4429 c-30 -24 -33 -49 -8 -72 24 -22 35 -21 55 1 20 22 22 63
5 80 -16 16 -21 15 -52 -9z"/>
<path d="M5314 4974 c3 -26 6 -55 6 -65 0 -15 8 -19 38 -19 21 0 43 5 49 11
20 20 3 39 -33 39 -39 0 -42 8 -13 33 27 24 20 41 -21 45 l-33 3 7 -47z"/>
<path d="M5484 4979 c3 -17 6 -44 6 -60 0 -16 5 -29 11 -29 16 0 69 56 69 74
0 24 -29 46 -62 46 -29 0 -30 -2 -24 -31z"/>
<path d="M6026 4969 c-34 -27 -36 -69 -3 -69 34 0 61 33 53 65 -8 30 -16 31
-50 4z"/>
<path d="M2150 4888 c-8 -13 -19 -28 -23 -35 -6 -10 0 -13 23 -13 28 0 30 3
30 35 0 40 -9 44 -30 13z"/>
<path d="M2522 4845 c-16 -34 -15 -35 8 -35 17 0 19 4 14 28 -9 36 -9 36 -22
7z"/>
<path d="M5311 4738 c1 -24 4 -56 8 -72 l6 -29 33 37 c25 29 32 45 30 69 -3
29 -7 32 -40 35 l-38 3 1 -43z"/>
<path d="M5414 4533 c4 -54 9 -135 12 -180 l6 -82 51 -3 52 -3 3 -51 3 -51 92
3 c51 2 277 11 502 20 226 9 437 19 470 23 l60 7 -60 21 c-352 125 -1072 364
-1168 387 l-29 7 6 -98z m428 -118 c14 -32 -2 -71 -37 -87 -21 -9 -28 -8 -45
7 -26 23 -25 46 1 79 27 34 65 35 81 1z"/>
<path d="M5777 4402 c-22 -24 -22 -48 0 -57 21 -7 56 29 51 54 -5 23 -32 25
-51 3z"/>
<path d="M5353 4578 c-36 -38 -230 -308 -269 -375 -15 -24 -24 -46 -21 -49 2
-3 84 -2 181 2 155 6 176 9 172 23 -3 9 -8 93 -11 186 -4 94 -10 187 -14 208
l-6 38 -32 -33z"/>
<path d="M5430 4205 l0 -45 45 0 45 0 0 45 0 45 -45 0 -45 0 0 -45z"/>
<path d="M7716 4604 c-20 -20 -21 -60 -1 -68 20 -7 64 10 71 28 8 21 -14 56
-36 56 -10 0 -26 -7 -34 -16z"/>
<path d="M2184 4490 c-25 -10 -35 -31 -25 -49 13 -21 61 8 61 36 0 25 -4 26
-36 13z"/>
<path d="M2801 4451 c-23 -23 -28 -61 -8 -61 25 0 58 32 55 53 -4 29 -23 32
-47 8z"/>
<path d="M2163 4193 c-7 -3 -13 -18 -13 -34 0 -25 4 -29 29 -29 35 0 46 13 32
39 -12 21 -30 30 -48 24z"/>
<path d="M2802 4114 c-31 -21 -30 -64 1 -64 13 0 32 6 42 14 18 13 18 15 2 40
-21 31 -17 30 -45 10z"/>
<path d="M8248 4039 c-10 -5 -18 -21 -18 -34 0 -29 0 -29 35 -13 17 8 25 18
23 32 -4 24 -17 29 -40 15z"/>
<path d="M5022 4049 c-15 -23 -11 -33 10 -27 9 2 12 11 9 26 l-6 22 -13 -21z"/>
<path d="M5464 4055 c-4 -9 -3 -40 1 -71 6 -54 7 -56 33 -49 59 15 75 66 18
56 -5 -1 -15 0 -23 3 -12 5 -12 9 1 28 9 12 16 28 16 35 0 18 -39 16 -46 -2z"/>
<path d="M6230 3650 c-531 -243 -591 -272 -586 -286 6 -16 253 -377 323 -471
29 -40 56 -73 61 -73 8 0 0 -14 219 379 208 375 328 601 316 600 -4 0 -154
-68 -333 -149z"/>
<path d="M6442 3515 c-12 -25 -20 -45 -17 -45 7 0 47 81 43 86 -3 2 -14 -17
-26 -41z"/>
<path d="M6392 3426 c-6 -15 -12 -37 -12 -49 1 -17 4 -15 16 12 18 42 15 78
-4 37z"/>
<path d="M6342 3332 c-7 -13 -12 -35 -10 -50 l4 -27 13 29 c6 16 10 39 9 50
-3 20 -4 20 -16 -2z"/>
<path d="M5626 3309 c-14 -94 -15 -135 -2 -152 12 -15 14 -5 21 74 4 58 3 95
-3 101 -7 7 -12 0 -16 -23z"/>
<path d="M5666 3265 c-9 -25 -7 -168 3 -184 10 -16 16 7 27 101 4 42 2 62 -9
78 -13 18 -15 19 -21 5z"/>
<path d="M6287 3235 c-9 -20 -17 -55 -16 -78 l1 -42 24 50 c23 49 32 105 16
105 -5 0 -16 -16 -25 -35z"/>
<path d="M5717 3194 c-3 -11 -8 -49 -12 -86 -5 -51 -3 -72 8 -88 l14 -21 7 23
c9 35 7 161 -3 177 -7 11 -10 10 -14 -5z"/>
<path d="M6228 3126 c-18 -37 -25 -126 -10 -126 15 0 34 74 30 119 l-3 44 -17
-37z"/>
<path d="M5756 3055 c-4 -58 -4 -101 2 -107 13 -13 26 166 14 188 -6 11 -11
-13 -16 -81z"/>
<path d="M5796 3053 c-9 -57 -7 -161 3 -167 10 -7 16 19 26 106 5 42 3 63 -8
78 -14 20 -15 19 -21 -17z"/>
<path d="M6172 3025 c-13 -29 -17 -135 -4 -135 23 0 39 103 23 143 -6 17 -8
16 -19 -8z"/>
<path d="M5836 2930 c-6 -75 -4 -94 10 -115 9 -14 19 -23 23 -20 3 4 9 43 12
88 5 65 3 88 -9 110 -9 15 -19 27 -23 27 -3 0 -9 -40 -13 -90z"/>
<path d="M6116 2926 c-15 -29 -17 -46 -11 -102 l7 -67 19 43 c19 42 22 81 10
133 l-6 28 -19 -35z"/>
<path d="M5897 2846 c-6 -90 -5 -100 16 -128 l22 -30 6 29 c4 15 7 60 8 98 1
59 -3 74 -22 99 l-24 29 -6 -97z"/>
<path d="M6057 2825 c-12 -25 -17 -60 -17 -123 l1 -87 24 45 c24 46 33 141 16
183 -6 15 -9 12 -24 -18z"/>
<path d="M5967 2783 c-11 -113 -9 -126 23 -163 l29 -35 0 105 c0 95 -2 108
-23 133 l-23 29 -6 -69z"/>
<path d="M960 3448 c0 -16 11 -18 85 -18 67 0 85 3 85 14 0 11 -20 15 -85 18
-76 3 -85 1 -85 -14z"/>
<path d="M950 3385 c0 -25 1 -25 90 -25 89 0 90 0 90 25 0 25 -1 25 -90 25
-89 0 -90 0 -90 -25z"/>
<path d="M950 3315 c0 -24 3 -25 59 -25 32 0 73 -3 90 -6 29 -6 31 -5 31 25
l0 31 -90 0 c-89 0 -90 0 -90 -25z"/>
<path d="M950 3240 l0 -30 90 0 90 0 0 30 0 30 -90 0 -90 0 0 -30z"/>
<path d="M950 3165 l0 -26 88 3 c82 3 87 4 90 26 3 21 1 22 -87 22 -91 0 -91
0 -91 -25z"/>
<path d="M950 3090 l0 -30 85 0 85 0 0 30 0 30 -85 0 -85 0 0 -30z"/>
<path d="M950 3019 c0 -15 4 -19 16 -15 9 3 47 6 85 6 55 0 69 3 69 15 0 12
-16 15 -85 15 -80 0 -85 -1 -85 -21z"/>
<path d="M957 2984 c-3 -3 -3 -12 0 -20 4 -10 25 -14 78 -14 53 0 74 4 78 14
9 22 -2 26 -78 26 -39 0 -74 -3 -78 -6z"/>
<path d="M1028 2932 c-53 -2 -66 -6 -62 -17 15 -38 116 -38 130 0 8 21 9 20
-68 17z"/>
<path d="M654 3231 c-2 -2 -4 -13 -4 -23 0 -16 9 -18 75 -18 67 0 75 2 75 19
0 17 -9 20 -71 23 -39 2 -73 1 -75 -1z"/>
<path d="M650 3150 c0 -18 7 -20 75 -20 68 0 75 2 75 20 0 18 -7 20 -75 20
-68 0 -75 -2 -75 -20z"/>
<path d="M650 3086 l0 -36 59 0 c33 0 66 -3 75 -6 13 -5 16 1 16 30 l0 36 -59
0 c-33 0 -66 3 -75 6 -13 5 -16 -1 -16 -30z"/>
<path d="M650 3005 c0 -24 2 -25 75 -25 73 0 75 1 75 25 0 24 -2 25 -75 25
-73 0 -75 -1 -75 -25z"/>
<path d="M652 2938 c3 -20 9 -23 51 -22 35 0 53 6 70 22 l21 22 -72 0 c-70 0
-73 -1 -70 -22z"/>
<path d="M1280 3110 c0 -18 7 -20 85 -20 78 0 85 2 85 20 0 18 -7 20 -85 20
-78 0 -85 -2 -85 -20z"/>
<path d="M1280 3055 c0 -12 16 -15 85 -15 69 0 85 3 85 15 0 12 -16 15 -85 15
-69 0 -85 -3 -85 -15z"/>
<path d="M1343 3022 c-47 -2 -63 -7 -63 -17 0 -12 17 -15 85 -15 77 0 85 2 85
19 0 13 -7 18 -22 17 -13 0 -51 -2 -85 -4z"/>
<path d="M1290 2955 c0 -13 13 -15 77 -13 50 2 78 7 81 16 3 9 -17 12 -77 12
-66 0 -81 -3 -81 -15z"/>
<path d="M1368 2922 c-38 -2 -68 -6 -68 -10 0 -35 84 -43 121 -13 13 11 22 21
19 23 -3 1 -35 2 -72 0z"/>
<path d="M4010 3142 c0 -40 1 -42 31 -42 l30 0 -28 38 c-15 20 -28 39 -30 41
-2 2 -3 -14 -3 -37z"/>
<path d="M3858 3024 c-2 -38 -2 -74 -1 -79 2 -6 33 -12 68 -13 l65 -3 0 75 0
76 -34 0 c-18 0 -47 3 -64 6 l-30 6 -4 -68z"/>
<path d="M4010 3005 l0 -75 49 0 50 0 6 55 c9 70 -8 95 -67 95 l-38 0 0 -75z"/>
<path d="M4132 2970 l-2 -40 40 0 41 0 -33 40 c-18 22 -35 40 -38 40 -3 0 -6
-18 -8 -40z"/>
<path d="M3856 2913 c-3 -4 -6 -35 -6 -70 l0 -63 70 0 70 0 0 65 c0 61 -2 65
-22 66 -13 0 -42 2 -64 4 -23 2 -45 1 -48 -2z"/>
<path d="M4010 2845 l0 -65 50 0 50 0 0 65 0 65 -50 0 -50 0 0 -65z"/>
<path d="M4130 2845 l0 -65 48 4 c26 2 53 4 60 5 16 1 16 93 0 109 -7 7 -34
12 -60 12 l-48 0 0 -65z"/>
<path d="M4270 2825 c0 -34 1 -35 37 -35 l37 0 -34 35 c-19 19 -35 35 -37 35
-2 0 -3 -16 -3 -35z"/>
<path d="M4053 2763 c-25 -2 -43 -9 -43 -16 0 -7 -3 -29 -6 -49 l-7 -38 57 0
56 0 0 55 c0 30 -3 54 -7 53 -5 -1 -27 -3 -50 -5z"/>
<path d="M4136 2763 c-3 -4 -6 -26 -6 -50 l0 -43 60 0 60 0 0 49 0 49 -54 1
c-29 0 -56 -3 -60 -6z"/>
<path d="M4270 2720 l0 -51 52 3 53 3 0 45 0 45 -52 3 -53 3 0 -51z"/>
<path d="M3850 2708 l0 -53 70 3 71 4 -2 49 -3 49 -68 0 -68 0 0 -52z"/>
<path d="M4394 2710 c1 -17 5 -30 9 -30 4 0 19 0 35 0 l27 0 -32 30 c-18 17
-34 30 -36 30 -2 0 -4 -14 -3 -30z"/>
<path d="M4400 2616 l0 -46 56 0 55 0 -3 43 -3 42 -52 3 -53 3 0 -45z"/>
<path d="M4047 2642 l-48 -3 3 -42 c2 -23 6 -41 11 -39 4 1 27 2 52 2 l45 0 0
39 c0 22 -3 41 -7 43 -5 2 -30 2 -56 0z"/>
<path d="M4130 2605 l0 -45 60 0 60 0 0 45 0 45 -60 0 -60 0 0 -45z"/>
<path d="M4270 2604 c0 -38 3 -45 16 -40 9 3 33 6 55 6 39 0 39 0 39 40 l0 40
-55 0 -55 0 0 -46z"/>
<path d="M3848 2595 l-3 -45 66 0 67 0 4 45 3 45 -66 0 -67 0 -4 -45z"/>
<path d="M4528 2602 c3 -25 7 -28 32 -24 l29 4 -28 24 c-36 30 -38 30 -33 -4z"/>
<path d="M4530 2495 l0 -65 50 0 50 0 0 65 0 65 -50 0 -50 0 0 -65z"/>
<path d="M4185 2541 l-60 -6 -3 -57 -4 -58 66 0 66 0 0 65 c0 36 -1 64 -2 63
-2 -1 -30 -4 -63 -7z"/>
<path d="M4270 2490 l0 -60 55 0 55 0 0 60 0 60 -55 0 -55 0 0 -60z"/>
<path d="M4400 2490 l0 -60 55 0 55 0 0 60 0 60 -55 0 -55 0 0 -60z"/>
<path d="M3908 2533 l-68 -4 0 -54 0 -55 70 0 70 0 0 60 c0 33 -1 59 -2 58 -2
-1 -33 -3 -70 -5z"/>
<path d="M4007 2533 c-4 -3 -7 -30 -7 -60 l0 -53 49 0 c46 0 49 1 55 31 3 17
6 44 6 60 0 28 -2 29 -48 29 -27 0 -52 -3 -55 -7z"/>
<path d="M4648 2485 l4 -55 35 0 c32 0 35 2 29 23 -3 12 -6 29 -6 37 0 13 -46
50 -62 50 -1 0 -1 -25 0 -55z"/>
<path d="M4730 2473 c0 -34 15 -44 61 -41 l44 3 -52 28 c-47 24 -53 25 -53 10z"/>
<path d="M4740 2368 l0 -48 45 0 45 0 0 50 0 51 -45 -3 -45 -3 0 -47z"/>
<path d="M4850 2369 l0 -50 38 3 c34 3 37 6 40 36 3 29 -1 34 -32 47 -19 8
-38 15 -41 15 -3 0 -5 -23 -5 -51z"/>
<path d="M4173 2403 l-53 -4 0 -55 0 -54 65 0 65 0 0 60 c0 42 -4 59 -12 58
-7 -1 -37 -3 -65 -5z"/>
<path d="M4270 2355 l0 -55 55 0 55 0 0 55 0 55 -55 0 -55 0 0 -55z"/>
<path d="M4400 2354 l0 -55 55 2 55 2 0 54 0 53 -55 0 -55 0 0 -56z"/>
<path d="M4530 2360 l0 -50 50 0 50 0 0 50 0 50 -50 0 -50 0 0 -50z"/>
<path d="M4650 2359 l0 -50 33 3 c37 3 37 4 37 58 0 39 -1 40 -35 40 l-35 0 0
-51z"/>
<path d="M3840 2340 l0 -60 70 0 70 0 0 60 0 60 -70 0 -70 0 0 -60z"/>
<path d="M4000 2339 l0 -61 31 6 c17 3 40 6 50 6 16 0 19 8 19 55 l0 55 -50 0
-50 0 0 -61z"/>
<path d="M4948 2355 c-5 -23 -2 -25 28 -25 42 0 47 26 8 40 -33 13 -31 14 -36
-15z"/>
<path d="M5030 2340 c0 -5 15 -10 33 -9 27 0 29 2 12 9 -28 12 -45 12 -45 0z"/>
<path d="M5128 2312 c-15 -3 -18 -14 -18 -58 0 -51 1 -54 25 -54 23 0 25 4 24
43 -1 54 -10 74 -31 69z"/>
<path d="M5173 2290 c4 -18 7 -45 7 -61 0 -24 4 -29 25 -29 24 0 25 3 25 55 0
41 -4 55 -14 55 -8 0 -22 3 -32 7 -15 5 -16 2 -11 -27z"/>
<path d="M4883 2302 c-33 -3 -33 -4 -33 -56 l0 -52 34 4 c33 4 34 5 38 54 1
27 1 51 -2 52 -3 1 -20 0 -37 -2z"/>
<path d="M4947 2304 c-4 -4 -7 -29 -7 -56 l0 -48 41 0 40 0 -3 53 c-3 50 -4
52 -33 55 -17 2 -34 0 -38 -4z"/>
<path d="M5034 2279 c3 -17 6 -42 6 -55 0 -20 5 -24 31 -24 24 0 30 3 25 16
-3 9 -6 33 -6 55 0 37 -2 39 -31 39 -30 0 -31 -2 -25 -31z"/>
<path d="M4673 2293 c-20 -4 -23 -11 -23 -54 l0 -49 40 0 40 0 0 55 c0 59 0
59 -57 48z"/>
<path d="M4750 2245 l0 -55 40 0 40 0 0 55 0 55 -40 0 -40 0 0 -55z"/>
<path d="M4438 2283 l-38 -4 0 -51 c0 -47 1 -50 23 -44 12 3 38 6 57 6 l35 0
-3 50 c-3 39 -7 50 -20 48 -10 -1 -34 -3 -54 -5z"/>
<path d="M4530 2240 l0 -50 50 0 50 0 0 50 0 50 -50 0 -50 0 0 -50z"/>
<path d="M4183 2273 l-63 -4 0 -44 0 -45 65 0 65 0 0 50 c0 28 -1 49 -2 48 -2
-1 -31 -3 -65 -5z"/>
<path d="M4270 2230 l0 -50 55 0 55 0 0 50 0 50 -55 0 -55 0 0 -50z"/>
<path d="M4013 2263 c-8 -3 -13 -22 -13 -46 l0 -42 50 3 50 4 0 44 0 44 -37
-1 c-21 0 -44 -3 -50 -6z"/>
<path d="M3838 2215 l-3 -45 72 0 73 0 0 45 0 45 -69 0 -69 0 -4 -45z"/>
<path d="M2344 2858 c-170 -193 -353 -401 -407 -460 -55 -60 -97 -111 -95
-112 10 -9 741 163 749 176 10 16 74 737 66 745 -2 1 -142 -156 -313 -349z"/>
<path d="M7232 2750 l-31 -70 42 0 42 0 -3 70 c-2 38 -7 70 -11 70 -5 0 -22
-31 -39 -70z"/>
<path d="M1205 2143 c-95 -24 -131 -157 -84 -304 25 -76 21 -108 -17 -146
l-25 -25 13 -252 13 -251 85 3 c46 2 86 5 88 7 5 4 -24 758 -34 893 -3 45 -9
81 -12 81 -4 -1 -16 -4 -27 -6z"/>
<path d="M1261 2093 c1 -27 4 -58 7 -71 6 -20 10 -18 42 29 l35 51 -24 19
c-13 10 -32 19 -42 19 -16 0 -19 -7 -18 -47z"/>
<path d="M1311 2021 c-34 -50 -42 -68 -39 -98 l3 -37 36 55 c74 112 70 104 56
123 -12 16 -17 12 -56 -43z"/>
<path d="M1327 1929 c-58 -85 -58 -85 -51 -143 l7 -57 59 105 c56 98 59 109
51 144 l-9 37 -57 -86z"/>
<path d="M1342 1797 c-53 -93 -62 -116 -62 -158 0 -27 3 -49 8 -49 4 1 35 47
69 103 61 101 61 103 55 157 l-7 55 -63 -108z"/>
<path d="M1587 1842 l-29 -17 7 -320 c4 -176 9 -322 10 -325 4 -6 382 3 388
10 6 7 -18 499 -25 506 -4 3 -32 -3 -63 -15 -31 -12 -67 -21 -80 -21 -37 0
-76 41 -114 121 -20 41 -43 75 -51 76 -8 2 -28 -5 -43 -15z"/>
<path d="M1496 1784 c-15 -9 -36 -14 -47 -11 -14 4 -33 -19 -89 -108 -61 -98
-70 -119 -70 -160 l0 -47 88 123 c110 156 154 219 150 219 -2 -1 -16 -8 -32
-16z"/>
<path d="M1412 1598 l-122 -173 0 -65 c0 -78 -9 -86 139 119 l111 155 0 68 c0
37 -1 68 -3 68 -2 0 -58 -78 -125 -172z"/>
<path d="M790 1698 c-20 -21 -31 -54 -44 -127 -8 -46 -5 -41 42 62 41 87 41
107 2 65z"/>
<path d="M841 1703 c-41 -79 -101 -229 -101 -256 l0 -32 18 30 c10 17 47 81
82 143 51 92 61 115 49 123 -22 13 -37 11 -48 -8z"/>
<path d="M1961 1656 c3 -52 10 -57 33 -21 20 31 21 30 -9 49 l-26 17 2 -45z"/>
<path d="M827 1526 c-52 -92 -87 -166 -87 -182 0 -39 6 -31 120 154 90 148 97
163 80 172 -10 6 -20 10 -22 10 -2 0 -43 -69 -91 -154z"/>
<path d="M957 1623 c-205 -332 -207 -336 -207 -407 0 -70 12 -83 35 -40 11 19
237 463 243 477 2 4 -8 7 -22 7 -19 0 -32 -10 -49 -37z"/>
<path d="M926 1411 c-70 -139 -127 -254 -125 -256 2 -2 16 -1 31 2 30 6 43 26
170 273 61 119 64 128 58 179 l-5 54 -129 -252z"/>
<path d="M1996 1605 c-21 -28 -26 -44 -24 -77 l3 -42 38 58 c34 51 36 59 24
77 -14 19 -15 18 -41 -16z"/>
<path d="M1417 1433 c-103 -144 -118 -170 -115 -200 3 -34 6 -31 126 126 115
150 122 163 120 201 -2 22 -5 40 -8 39 -3 0 -58 -75 -123 -166z"/>
<path d="M2012 1510 c-40 -56 -42 -63 -35 -104 l8 -44 53 78 c48 71 51 80 41
104 -7 14 -15 26 -19 26 -3 0 -25 -27 -48 -60z"/>
<path d="M1028 1438 c-20 -40 -62 -119 -92 -176 -49 -92 -53 -103 -34 -100 15
2 43 39 95 122 71 114 74 121 71 173 l-3 55 -37 -74z"/>
<path d="M2040 1410 c-54 -81 -61 -96 -58 -133 l3 -42 82 121 c75 112 80 121
62 132 -10 7 -21 12 -24 12 -2 0 -32 -41 -65 -90z"/>
<path d="M2195 1476 c-24 -7 -49 -37 -123 -147 l-92 -139 37 0 c38 0 38 1 126
142 48 77 86 144 85 147 -2 3 -17 2 -33 -3z"/>
<path d="M687 1455 c-15 -14 -46 -29 -70 -36 -23 -6 -48 -13 -54 -15 -9 -2
-13 -27 -13 -76 0 -40 -3 -97 -6 -125 l-7 -53 97 0 96 0 -1 78 c-1 42 -4 116
-8 164 l-6 86 -28 -23z"/>
<path d="M1428 1328 c-101 -131 -115 -153 -97 -156 11 -2 26 -2 32 1 7 3 52
59 100 125 72 100 88 127 85 152 -3 28 -11 20 -120 -122z"/>
<path d="M2165 1333 c-95 -153 -91 -143 -52 -143 31 0 36 5 76 75 35 63 42 82
39 120 l-3 45 -60 -97z"/>
<path d="M1468 1274 l-77 -104 37 0 c34 0 40 5 80 66 35 53 43 73 40 103 l-3
38 -77 -103z"/>
<path d="M1008 1267 l-68 -108 41 3 c40 3 41 4 70 73 19 44 29 82 27 104 -3
35 -4 33 -70 -72z"/>
<path d="M2197 1240 l-28 -50 30 0 c30 0 31 1 31 50 0 28 -1 50 -2 50 -2 0
-16 -23 -31 -50z"/>
<path d="M1518 1217 l-27 -42 25 -3 c34 -5 36 -1 32 47 l-3 41 -27 -43z"/>
<path d="M1058 1205 c-15 -39 -15 -40 4 -43 26 -5 27 -3 19 43 l-7 40 -16 -40z"/>
<path d="M2888 2153 c-30 -33 -41 -63 -29 -82 7 -11 13 -11 37 0 31 15 41 48
27 87 l-9 23 -26 -28z"/>
<path d="M7240 2092 c-25 -20 -20 -43 17 -67 31 -21 34 -17 40 40 5 40 3 45
-15 45 -11 0 -30 -8 -42 -18z"/>
<path d="M7227 1982 c-60 -66 -21 -135 47 -81 33 26 34 62 1 83 -30 20 -28 20
-48 -2z"/>
<path d="M2903 1793 c-19 -4 -23 -11 -23 -39 0 -27 4 -34 20 -34 43 0 81 72
40 76 -8 1 -25 -1 -37 -3z"/>
<path d="M5441 1750 c-8 -24 -7 -30 5 -30 9 0 14 10 14 30 0 17 -2 30 -4 30
-2 0 -9 -13 -15 -30z"/>
<path d="M5536 1553 c-3 -49 -13 -236 -21 -418 -9 -181 -17 -340 -19 -352 -4
-29 1 -29 24 0 10 12 103 121 208 241 l190 219 -186 199 c-101 109 -186 198
-187 198 -2 0 -6 -39 -9 -87z"/>
<path d="M5717 983 c-113 -131 -204 -239 -203 -240 3 -3 777 84 780 88 5 5
-354 389 -363 389 -5 0 -101 -107 -214 -237z m163 65 c0 -57 10 -79 30 -68 11
6 23 5 34 -3 19 -14 35 -107 17 -107 -6 0 -11 14 -11 31 0 17 -5 39 -10 50 -9
16 -15 17 -31 8 -17 -9 -19 -17 -14 -50 4 -23 3 -39 -3 -39 -10 0 -16 32 -28
148 -5 43 -3 62 5 62 6 0 11 -15 11 -32z"/>
<path d="M7522 1658 c-15 -15 -16 -84 -1 -93 17 -11 59 36 59 66 0 35 -34 51
-58 27z"/>
<path d="M7391 1628 c-20 -21 -29 -78 -13 -78 23 0 52 34 52 60 0 39 -14 45
-39 18z"/>
<path d="M3783 1543 l-31 -4 -7 -112 c-4 -62 -8 -251 -8 -422 l-2 -310 70 3
c175 7 790 59 992 83 l91 11 6 42 c16 120 57 696 49 709 -4 7 -1100 7 -1160 0z
m712 -99 c-16 -14 -42 -32 -57 -42 -16 -9 -28 -19 -28 -22 0 -3 21 -12 47 -18
81 -22 82 -28 11 -99 l-62 -63 62 0 c35 0 62 -4 62 -10 0 -6 -28 -10 -65 -10
-91 0 -95 16 -21 88 31 30 55 57 52 59 -2 3 -30 12 -61 22 -31 10 -57 20 -58
24 -3 10 116 96 133 96 9 0 3 -9 -15 -25z m250 6 c3 -6 -4 -10 -17 -10 -35 0
-48 -19 -48 -67 0 -42 0 -43 35 -43 19 0 35 -4 35 -10 0 -5 -16 -10 -35 -10
l-35 0 7 -75 c4 -53 3 -75 -6 -75 -6 0 -11 18 -11 44 0 63 -11 106 -26 106 -8
0 -14 5 -14 10 0 6 7 10 15 10 11 0 15 12 15 45 0 32 6 51 20 65 21 21 55 26
65 10z m-812 -123 l34 -48 37 50 c20 28 41 51 47 51 8 0 7 -7 -2 -19 -8 -11
-27 -38 -42 -60 l-29 -40 42 -61 c23 -34 39 -64 36 -67 -3 -4 -7 -4 -9 -2 -2
2 -21 28 -42 58 l-39 54 -20 -25 c-12 -14 -31 -38 -42 -54 -12 -16 -25 -26
-29 -22 -4 3 12 31 34 61 23 29 41 57 41 62 0 4 -16 30 -35 56 -19 27 -35 52
-35 55 0 15 22 -5 53 -49z m372 -7 c-3 -5 -31 -10 -61 -10 -30 0 -54 5 -54 10
0 6 27 10 61 10 37 0 58 -4 54 -10z m0 -60 c4 -6 -18 -10 -59 -10 -37 0 -66 4
-66 10 0 6 26 10 59 10 33 0 63 -4 66 -10z m520 -199 c-15 -13 -583 -26 -570
-12 6 6 69 12 155 14 348 7 424 7 415 -2z m-181 -158 c0 -55 -3 -77 -16 -90
-23 -22 -36 -10 -73 67 -16 33 -31 60 -35 60 -3 0 -14 -26 -25 -57 -11 -31
-25 -58 -31 -60 -14 -5 31 126 50 145 11 12 19 2 46 -57 44 -96 57 -105 65
-48 4 25 3 66 -3 91 -10 48 -4 68 12 39 5 -9 10 -50 10 -90z"/>
<path d="M6890 965 l0 -105 86 0 87 0 -7 31 c-3 17 -6 65 -6 105 l0 74 -80 0
-80 0 0 -105z"/>
<path d="M7383 1315 c-3 -9 -3 -18 0 -21 9 -9 27 6 27 22 0 19 -19 18 -27 -1z"/>
<path d="M5347 1178 c-12 -10 -14 -21 -9 -48 l8 -34 22 22 c24 24 30 72 9 72
-7 0 -21 -6 -30 -12z"/>
<path d="M7178 1238 c-26 -20 -34 -66 -13 -74 28 -11 48 18 38 55 -7 28 -10
30 -25 19z"/>
<path d="M7299 1185 c-16 -36 -18 -50 -9 -59 9 -8 17 -4 36 17 27 32 31 59 9
77 -13 11 -18 5 -36 -35z"/>
<path d="M6429 868 c0 -7 -6 -48 -13 -91 -7 -43 -9 -80 -5 -83 16 -10 67 26
79 56 16 39 3 58 -28 41 -30 -16 -39 5 -15 32 34 37 36 57 8 57 -14 0 -25 -6
-26 -12z"/>
</g>
</svg>
